<svg id="mermaidChart0" width="100%" height="100%" viewBox="0 0 1072 362" style="max-width:1072px;" version="1.1" xmlns="http://www.w3.org/2000/svg" xmlns:xlink="http://www.w3.org/1999/xlink"><style type="text/css" title="mermaid-svg-internal-css">/*  */
#mermaidChart0 .node { fill:#ffa; stroke:#666; stroke-width:3px; }
#mermaidChart0 .node text  { fill:#000; stroke:none; font-weight:300; font-family:"Helvetica Neue",Helvetica,Arial,sans-serf; font-size:14px; }
#mermaidChart0 .edgeLabel text  { fill:#000; stroke:none; font-weight:300; font-family:"Helvetica Neue",Helvetica,Arial,sans-serf; font-size:14px; }
#mermaidChart0 .cluster rect  { rx:4px; fill: rgb(255, 255, 222); rx: 4px; stroke: rgb(170, 170, 51); stroke-width: 1px; }
* { margin-top: 0px; margin-right: 0px; margin-bottom: 0px; margin-left: 0px; padding-top: 0px; padding-right: 0px; padding-bottom: 0px; padding-left: 0px;  }
/*  */
</style><g><g class="output"><g class="clusters"><g class="cluster" id="subGraph2" style="opacity: 1; " transform="translate(975.5,156.75)"><g class="label"><g transform="translate(-39.5,-12)"><text xmlns="http://www.w3.org/1999/xhtml"><tspan style="font-size: 11.5pt; font-family: &quot;sans-serif&quot;;" x="0" y="14.5">subGraph2</tspan></text></g></g><rect width="113" height="256.5" x="-56.5" y="-128.25"/><text x="0" y="-114.25" fill="black" stroke="none" id="mermaidChart0Text" style="text-anchor: middle; "> Result</text></g><g class="cluster" id="subGraph1" style="opacity: 1; " transform="translate(650.5,171)"><g class="label"><g transform="translate(-39.5,-12)"><text xmlns="http://www.w3.org/1999/xhtml"><tspan style="font-size: 11.5pt; font-family: &quot;sans-serif&quot;;" x="0" y="14.5">subGraph1</tspan></text></g></g><rect width="437" height="302" x="-218.5" y="-151"/><text x="0" y="-137" fill="black" stroke="none" id="mermaidChart0Text" style="text-anchor: middle; "> Computation</text></g><g class="cluster" id="subGraph0" style="opacity: 1; " transform="translate(201,161)"><g class="label"><g transform="translate(-39.5,-12)"><text xmlns="http://www.w3.org/1999/xhtml"><tspan style="font-size: 11.5pt; font-family: &quot;sans-serif&quot;;" x="0" y="14.5">subGraph0</tspan></text></g></g><rect width="362" height="114" x="-181" y="-57"/><text x="0" y="-43" fill="black" stroke="none" id="mermaidChart0Text" style="text-anchor: middle; "> Science</text></g></g><g class="edgePaths"><g class="edgePath" style="opacity: 1; "><path class="path" d="M159,161L184,161L209,161" marker-end="url(#arrowhead96)" style="fill:none"/><defs><marker id="arrowhead96" viewBox="0 0 10 10" refX="9" refY="5" markerUnits="strokeWidth" markerWidth="8" markerHeight="6" orient="auto"><path d="M 0 0 L 10 5 L 0 10 z" style="fill: #333"/></marker></defs></g><g class="edgePath" style="opacity: 1; "><path class="path" d="M253,161L278,161L303,161" marker-end="url(#arrowhead97)" style="fill:none"/><defs><marker id="arrowhead97" viewBox="0 0 10 10" refX="9" refY="5" markerUnits="strokeWidth" markerWidth="8" markerHeight="6" orient="auto"><path d="M 0 0 L 10 5 L 0 10 z" style="fill: #333"/></marker></defs></g><g class="edgePath" style="opacity: 1; "><path class="path" d="M538,161L563,161L588,161" marker-end="url(#arrowhead98)" style="fill:none"/><defs><marker id="arrowhead98" viewBox="0 0 10 10" refX="9" refY="5" markerUnits="strokeWidth" markerWidth="8" markerHeight="6" orient="auto"><path d="M 0 0 L 10 5 L 0 10 z" style="fill: #333"/></marker></defs></g><g class="edgePath" style="opacity: 1; "><path class="path" d="M670.8928571428571,139L734,77L767,77" marker-end="url(#arrowhead99)" style="fill:none"/><defs><marker id="arrowhead99" viewBox="0 0 10 10" refX="9" refY="5" markerUnits="strokeWidth" markerWidth="8" markerHeight="6" orient="auto"><path d="M 0 0 L 10 5 L 0 10 z" style="fill: #333"/></marker></defs></g><g class="edgePath" style="opacity: 1; "><path class="path" d="M709,168.07602339181287L734,171L764.5,171" marker-end="url(#arrowhead100)" style="fill:none"/><defs><marker id="arrowhead100" viewBox="0 0 10 10" refX="9" refY="5" markerUnits="strokeWidth" markerWidth="8" markerHeight="6" orient="auto"><path d="M 0 0 L 10 5 L 0 10 z" style="fill: #333"/></marker></defs></g><g class="edgePath" style="opacity: 1; "><path class="path" d="M666.5865384615385,183L734,265L759,265" marker-end="url(#arrowhead101)" style="fill:none"/><defs><marker id="arrowhead101" viewBox="0 0 10 10" refX="9" refY="5" markerUnits="strokeWidth" markerWidth="8" markerHeight="6" orient="auto"><path d="M 0 0 L 10 5 L 0 10 z" style="fill: #333"/></marker></defs></g><g class="edgePath" style="opacity: 1; "><path class="path" d="M357,161L382,161L407,161L432,161L457,161" marker-end="url(#arrowhead102)" style="fill:none"/><defs><marker id="arrowhead102" viewBox="0 0 10 10" refX="9" refY="5" markerUnits="strokeWidth" markerWidth="8" markerHeight="6" orient="auto"><path d="M 0 0 L 10 5 L 0 10 z" style="fill: #333"/></marker></defs></g><g class="edgePath" style="opacity: 1; "><path class="path" d="M836,77L869,77L894,77L919,77L962.2765957446809,149" marker-end="url(#arrowhead103)" style="fill:none"/><defs><marker id="arrowhead103" viewBox="0 0 10 10" refX="9" refY="5" markerUnits="strokeWidth" markerWidth="8" markerHeight="6" orient="auto"><path d="M 0 0 L 10 5 L 0 10 z" style="fill: #333"/></marker></defs></g><g class="edgePath" style="opacity: 1; "><path class="path" d="M838.5,171L869,171L894,171L919,171L944,171" marker-end="url(#arrowhead104)" style="fill:none"/><defs><marker id="arrowhead104" viewBox="0 0 10 10" refX="9" refY="5" markerUnits="strokeWidth" markerWidth="8" markerHeight="6" orient="auto"><path d="M 0 0 L 10 5 L 0 10 z" style="fill: #333"/></marker></defs></g><g class="edgePath" style="opacity: 1; "><path class="path" d="M844,265L869,265L894,265L919,265L962.2765957446809,193" marker-end="url(#arrowhead105)" style="fill:none"/><defs><marker id="arrowhead105" viewBox="0 0 10 10" refX="9" refY="5" markerUnits="strokeWidth" markerWidth="8" markerHeight="6" orient="auto"><path d="M 0 0 L 10 5 L 0 10 z" style="fill: #333"/></marker></defs></g></g><g class="edgeLabels"><g class="edgeLabel" style="opacity: 1; " transform=""><g transform="translate(0,0)" class="label"><text xmlns="http://www.w3.org/1999/xhtml"><tspan style="font-size: 11.5pt; font-family: &quot;sans-serif&quot;;" x="0" y="14.5"></tspan></text></g></g><g class="edgeLabel" style="opacity: 1; " transform=""><g transform="translate(0,0)" class="label"><text xmlns="http://www.w3.org/1999/xhtml"><tspan style="font-size: 11.5pt; font-family: &quot;sans-serif&quot;;" x="0" y="14.5"></tspan></text></g></g><g class="edgeLabel" style="opacity: 1; " transform=""><g transform="translate(0,0)" class="label"><text xmlns="http://www.w3.org/1999/xhtml"><tspan style="font-size: 11.5pt; font-family: &quot;sans-serif&quot;;" x="0" y="14.5"></tspan></text></g></g><g class="edgeLabel" style="opacity: 1; " transform=""><g transform="translate(0,0)" class="label"><text xmlns="http://www.w3.org/1999/xhtml"><tspan style="font-size: 11.5pt; font-family: &quot;sans-serif&quot;;" x="0" y="14.5"></tspan></text></g></g><g class="edgeLabel" style="opacity: 1; " transform=""><g transform="translate(0,0)" class="label"><text xmlns="http://www.w3.org/1999/xhtml"><tspan style="font-size: 11.5pt; font-family: &quot;sans-serif&quot;;" x="0" y="14.5"></tspan></text></g></g><g class="edgeLabel" style="opacity: 1; " transform=""><g transform="translate(0,0)" class="label"><text xmlns="http://www.w3.org/1999/xhtml"><tspan style="font-size: 11.5pt; font-family: &quot;sans-serif&quot;;" x="0" y="14.5"></tspan></text></g></g><g class="edgeLabel" style="opacity: 1; " transform=""><g transform="translate(0,0)" class="label"><text xmlns="http://www.w3.org/1999/xhtml"><tspan style="font-size: 11.5pt; font-family: &quot;sans-serif&quot;;" x="0" y="14.5"></tspan></text></g></g><g class="edgeLabel" style="opacity: 1; " transform=""><g transform="translate(0,0)" class="label"><text xmlns="http://www.w3.org/1999/xhtml"><tspan style="font-size: 11.5pt; font-family: &quot;sans-serif&quot;;" x="0" y="14.5"></tspan></text></g></g><g class="edgeLabel" style="opacity: 1; " transform=""><g transform="translate(0,0)" class="label"><text xmlns="http://www.w3.org/1999/xhtml"><tspan style="font-size: 11.5pt; font-family: &quot;sans-serif&quot;;" x="0" y="14.5"></tspan></text></g></g><g class="edgeLabel" style="opacity: 1; " transform=""><g transform="translate(0,0)" class="label"><text xmlns="http://www.w3.org/1999/xhtml"><tspan style="font-size: 11.5pt; font-family: &quot;sans-serif&quot;;" x="0" y="14.5"></tspan></text></g></g></g><g class="nodes"><g class="node" style="opacity: 1; " id="A" transform="translate(975.5,171)"><rect rx="0" ry="0" x="-31.5" y="-22" width="63" height="44"/><g class="label" transform="translate(0,0)"><g transform="translate(-21.5,-12)"><text xmlns="http://www.w3.org/1999/xhtml"><tspan style="font-size: 11.5pt; font-family: &quot;sans-serif&quot;;" x="0" y="14.5">Paper</tspan></text></g></g></g><g class="node" style="opacity: 1; " id="Analysis" transform="translate(497.5,161)"><rect rx="0" ry="0" x="-40.5" y="-22" width="81" height="44"/><g class="label" transform="translate(0,0)"><g transform="translate(-30.5,-12)"><text xmlns="http://www.w3.org/1999/xhtml"><tspan style="font-size: 11.5pt; font-family: &quot;sans-serif&quot;;" x="0" y="14.5">Analysis</tspan></text></g></g></g><g class="node" style="opacity: 1; " id="C" transform="translate(648.5,161)"><rect rx="0" ry="0" x="-60.5" y="-22" width="121" height="44"/><g class="label" transform="translate(0,0)"><g transform="translate(-50.5,-12)"><text xmlns="http://www.w3.org/1999/xhtml"><tspan style="font-size: 11.5pt; font-family: &quot;sans-serif&quot;;" x="0" y="14.5">Comp.Results</tspan></text></g></g></g><g class="node" style="opacity: 1; " id="T" transform="translate(801.5,77)"><rect rx="0" ry="0" x="-34.5" y="-22" width="69" height="44"/><g class="label" transform="translate(0,0)"><g transform="translate(-24.5,-12)"><text xmlns="http://www.w3.org/1999/xhtml"><tspan style="font-size: 11.5pt; font-family: &quot;sans-serif&quot;;" x="0" y="14.5">Tables</tspan></text></g></g></g><g class="node" style="opacity: 1; " id="F" transform="translate(801.5,171)"><rect rx="0" ry="0" x="-37" y="-22" width="74" height="44"/><g class="label" transform="translate(0,0)"><g transform="translate(-27,-12)"><text xmlns="http://www.w3.org/1999/xhtml"><tspan style="font-size: 11.5pt; font-family: &quot;sans-serif&quot;;" x="0" y="14.5">Figures</tspan></text></g></g></g><g class="node" style="opacity: 1; " id="N" transform="translate(801.5,265)"><rect rx="0" ry="0" x="-42.5" y="-22" width="85" height="44"/><g class="label" transform="translate(0,0)"><g transform="translate(-32.5,-12)"><text xmlns="http://www.w3.org/1999/xhtml"><tspan style="font-size: 11.5pt; font-family: &quot;sans-serif&quot;;" x="0" y="14.5">Numbers</tspan></text></g></g></g><g class="node" style="opacity: 1; " id="s" transform="translate(102,161)"><rect rx="0" ry="0" x="-57" y="-22" width="114" height="44"/><g class="label" transform="translate(0,0)"><g transform="translate(-47,-12)"><text xmlns="http://www.w3.org/1999/xhtml"><tspan style="font-size: 11.5pt; font-family: &quot;sans-serif&quot;;" x="0" y="14.5">Science Stuff</tspan></text></g></g></g><g class="node" style="opacity: 1; " id="RQ" transform="translate(231,161)"><rect rx="0" ry="0" x="-22" y="-22" width="44" height="44"/><g class="label" transform="translate(0,0)"><g transform="translate(-12,-12)"><text xmlns="http://www.w3.org/1999/xhtml"><tspan style="font-size: 11.5pt; font-family: &quot;sans-serif&quot;;" x="0" y="14.5">RQ</tspan></text></g></g></g><g class="node" style="opacity: 1; " id="Data" transform="translate(330,161)"><rect rx="0" ry="0" x="-27" y="-22" width="54" height="44"/><g class="label" transform="translate(0,0)"><g transform="translate(-17,-12)"><text xmlns="http://www.w3.org/1999/xhtml"><tspan style="font-size: 11.5pt; font-family: &quot;sans-serif&quot;;" x="0" y="14.5">Data</tspan></text></g></g></g></g></g></g></svg>